<svg version="1.1" width="1918" height="1405" xmlns="http://www.w3.org/2000/svg">
<rect x="0" y="0" width="1918" height="1405" fill="#727586" />
<g transform="scale(7.49219, 7.51337)">
<path d="M 163 5 L 29 100 L 169 107 Z" fill="#070000" fill-opacity="0.501961" />
<path d="M -16 186 L 271 184 L 65 90 Z" fill="#a0b3dc" fill-opacity="0.501961" />
<path d="M 130 123 L 85 -14 L 84 105 Z" fill="#230d17" fill-opacity="0.501961" />
<path d="M 140 202 L 267 80 L 261 190 Z" fill="#91a8c9" fill-opacity="0.501961" />
<path d="M 75 64 L 53 84 L 78 108 Z" fill="#aeb8d9" fill-opacity="0.501961" />
<path d="M 271 0 L 208 57 L 42 -16 Z" fill="#7b6c5f" fill-opacity="0.501961" />
<path d="M 99 202 L 3 63 L -10 201 Z" fill="#99a4c6" fill-opacity="0.501961" />
<path d="M 59 104 L 27 107 L 42 63 Z" fill="#0a0312" fill-opacity="0.501961" />
<path d="M 176 59 L 74 77 L 133 23 Z" fill="#160b12" fill-opacity="0.501961" />
<path d="M 200 124 L 231 122 L 205 106 Z" fill="#0c0812" fill-opacity="0.501961" />
<path d="M 200 88 L 198 169 L 42 154 Z" fill="#8690ad" fill-opacity="0.501961" />
<path d="M 222 12 L 116 -1 L 51 53 Z" fill="#7b7175" fill-opacity="0.501961" />
<path d="M 175 45 L 150 31 L 168 94 Z" fill="#3a3037" fill-opacity="0.501961" />
<path d="M 116 120 L 84 101 L 165 101 Z" fill="#2f2c41" fill-opacity="0.501961" />
<path d="M 110 161 L 108 149 L 127 156 Z" fill="#312f40" fill-opacity="0.501961" />
<path d="M 77 50 L 94 44 L 90 57 Z" fill="#6e0000" fill-opacity="0.501961" />
<path d="M 271 69 L 170 81 L 271 149 Z" fill="#828a99" fill-opacity="0.501961" />
<path d="M 46 -16 L -16 16 L 111 44 Z" fill="#7a6f6f" fill-opacity="0.501961" />
<path d="M 30 89 L 45 83 L 35 111 Z" fill="#0a040e" fill-opacity="0.501961" />
<path d="M 106 89 L 134 27 L 96 53 Z" fill="#0f090f" fill-opacity="0.501961" />
<path d="M 78 17 L 94 1 L 92 22 Z" fill="#181311" fill-opacity="0.501961" />
<path d="M 61 116 L 48 64 L 113 127 Z" fill="#7e839d" fill-opacity="0.501961" />
<path d="M 217 30 L 215 22 L 203 32 Z" fill="#1f1213" fill-opacity="0.501961" />
<path d="M 122 21 L -12 101 L -9 30 Z" fill="#7b7986" fill-opacity="0.501961" />
<path d="M 65 145 L 24 93 L -16 169 Z" fill="#8b95b2" fill-opacity="0.501961" />
<path d="M 169 28 L 138 112 L 169 101 Z" fill="#474251" fill-opacity="0.501961" />
<path d="M 176 182 L 271 171 L 229 115 Z" fill="#8898b6" fill-opacity="0.501961" />
<path d="M 252 75 L 131 19 L 170 3 Z" fill="#7b7778" fill-opacity="0.501961" />
<path d="M 134 24 L 158 60 L 111 99 Z" fill="#261f27" fill-opacity="0.501961" />
<path d="M 217 29 L 267 64 L 156 110 Z" fill="#7c7e86" fill-opacity="0.501961" />
<path d="M 196 110 L 207 153 L 64 128 Z" fill="#828ca7" fill-opacity="0.501961" />
<path d="M -16 83 L 38 85 L 39 25 Z" fill="#7c7d8c" fill-opacity="0.501961" />
<path d="M 124 119 L 119 91 L 168 97 Z" fill="#464255" fill-opacity="0.501961" />
<path d="M 156 76 L 143 57 L 137 92 Z" fill="#4e4a5e" fill-opacity="0.501961" />
<path d="M 257 1 L 264 44 L 169 -2 Z" fill="#6e6a68" fill-opacity="0.501961" />
<path d="M 44 72 L 55 100 L 33 108 Z" fill="#25212f" fill-opacity="0.501961" />
<path d="M 221 117 L 207 103 L 201 129 Z" fill="#302f3c" fill-opacity="0.501961" />
<path d="M 120 36 L 93 -2 L 93 50 Z" fill="#736b74" fill-opacity="0.501961" />
<path d="M 125 202 L 223 139 L 86 163 Z" fill="#8896b5" fill-opacity="0.501961" />
<path d="M 60 136 L 112 147 L 42 202 Z" fill="#949fbf" fill-opacity="0.501961" />
<path d="M 50 109 L 46 66 L 62 103 Z" fill="#49475a" fill-opacity="0.501961" />
<path d="M 117 159 L 118 148 L 109 155 Z" fill="#383748" fill-opacity="0.501961" />
<path d="M 98 61 L 88 73 L 100 93 Z" fill="#3b3345" fill-opacity="0.501961" />
<path d="M 74 90 L 47 80 L 78 36 Z" fill="#7c7f92" fill-opacity="0.501961" />
<path d="M 45 102 L 28 90 L 48 73 Z" fill="#211c28" fill-opacity="0.501961" />
<path d="M 84 10 L 82 21 L 68 16 Z" fill="#514b51" fill-opacity="0.501961" />
<path d="M 75 97 L -16 139 L 137 137 Z" fill="#8990ad" fill-opacity="0.501961" />
<path d="M 111 111 L 115 92 L 119 111 Z" fill="#0f0915" fill-opacity="0.501961" />
<path d="M 175 50 L 166 118 L 211 104 Z" fill="#7c8192" fill-opacity="0.501961" />
<path d="M 271 36 L 170 83 L 176 31 Z" fill="#76767a" fill-opacity="0.501961" />
<path d="M 95 176 L 88 171 L 87 178 Z" fill="#555872" fill-opacity="0.501961" />
<path d="M 166 83 L 174 52 L 125 111 Z" fill="#342f3b" fill-opacity="0.501961" />
<path d="M 95 51 L 86 54 L 84 44 Z" fill="#5a0000" fill-opacity="0.501961" />
<path d="M 109 60 L 139 64 L 133 100 Z" fill="#322d3a" fill-opacity="0.501961" />
<path d="M 223 120 L 217 114 L 214 121 Z" fill="#0c0a13" fill-opacity="0.501961" />
<path d="M 209 117 L 222 110 L 211 103 Z" fill="#676978" fill-opacity="0.501961" />
<path d="M 172 36 L 160 34 L 173 69 Z" fill="#4c4649" fill-opacity="0.501961" />
<path d="M 229 70 L 229 67 L 225 69 Z" fill="#261e23" fill-opacity="0.501961" />
<path d="M 122 148 L 1 168 L -6 121 Z" fill="#8e99b7" fill-opacity="0.501961" />
<path d="M 81 85 L 86 102 L 77 95 Z" fill="#5a5674" fill-opacity="0.501961" />
<path d="M 33 108 L 24 73 L -16 102 Z" fill="#80849d" fill-opacity="0.501961" />
<path d="M 253 80 L 230 136 L 208 139 Z" fill="#7e8697" fill-opacity="0.501961" />
<path d="M 131 25 L 161 37 L 122 38 Z" fill="#352b30" fill-opacity="0.501961" />
<path d="M 60 -15 L 70 15 L 120 -11 Z" fill="#776d6f" fill-opacity="0.501961" />
<path d="M 88 58 L 47 24 L 50 84 Z" fill="#757686" fill-opacity="0.501961" />
<path d="M 77 74 L 102 45 L 138 40 Z" fill="#170e14" fill-opacity="0.501961" />
<path d="M 169 103 L 147 176 L 104 135 Z" fill="#848ca6" fill-opacity="0.501961" />
<path d="M 120 121 L 128 105 L 112 119 Z" fill="#5a5a71" fill-opacity="0.501961" />
<path d="M 198 128 L 203 120 L 219 134 Z" fill="#505469" fill-opacity="0.501961" />
<path d="M 123 87 L 120 102 L 130 85 Z" fill="#5b576d" fill-opacity="0.501961" />
<path d="M 151 68 L 148 58 L 160 49 Z" fill="#120b0e" fill-opacity="0.501961" />
<path d="M 168 134 L 166 128 L 170 130 Z" fill="#434458" fill-opacity="0.501961" />
<path d="M 141 40 L 148 44 L 128 66 Z" fill="#100b0c" fill-opacity="0.501961" />
<path d="M 39 111 L 62 104 L 36 104 Z" fill="#5e5d77" fill-opacity="0.501961" />
<path d="M 31 106 L 58 102 L 50 85 Z" fill="#282434" fill-opacity="0.501961" />
<path d="M 81 15 L 30 64 L 63 73 Z" fill="#777887" fill-opacity="0.501961" />
<path d="M 92 108 L 104 106 L 79 96 Z" fill="#4f4e62" fill-opacity="0.501961" />
<path d="M 148 104 L 145 78 L 140 107 Z" fill="#504f64" fill-opacity="0.501961" />
</g>
</svg>
