<svg version="1.1" width="777" height="953" xmlns="http://www.w3.org/2000/svg">
<rect x="0" y="0" width="777" height="953" fill="#2f2247" />
<g transform="scale(3.7177, 3.72266)">
<path d="M 218.097 162.651 C 190.337 162.577, 145.548 159.834, 83.7306 154.423" fill="none" stroke="#788ef0" stroke-opacity="0.501961" stroke-width="0.268983" stroke-linecap="round" />
<path d="M 28.6409 160.048 C 85.0343 159.318, 148.197 158.928, 218.13 158.878" fill="none" stroke="#907ace" stroke-opacity="0.501961" stroke-width="0.268983" stroke-linecap="round" />
<path d="M 57.1826 65.7706 C 53.8293 144.079, 108.233 174.94, 220.395 158.355" fill="none" stroke="#777cd3" stroke-opacity="0.501961" stroke-width="0.268983" stroke-linecap="round" />
<path d="M 224 151.682 C 132.998 177.775, 68.8784 150.529, 31.6413 69.944" fill="none" stroke="#767ad1" stroke-opacity="0.501961" stroke-width="0.268983" stroke-linecap="round" />
<path d="M 219.917 163.959 C 103.742 165.037, 43.8614 149.578, 40.277 117.58" fill="none" stroke="#9274c5" stroke-opacity="0.501961" stroke-width="0.268983" stroke-linecap="round" />
<path d="M 210.24 162.477 C 117.228 174.909, 62.3045 143.683, 45.4704 68.7987" fill="none" stroke="#7278cc" stroke-opacity="0.501961" stroke-width="0.268983" stroke-linecap="round" />
<path d="M 224 161.23 C 111.619 160.729, 46.6953 147.981, 29.229 122.985" fill="none" stroke="#9473c2" stroke-opacity="0.501961" stroke-width="0.268983" stroke-linecap="round" />
<path d="M 224 5.80041 C 69.3818 -8.7332, -9.33634 0.00505829, -12.1543 32.0152" fill="none" stroke="#000000" stroke-opacity="0.501961" stroke-width="0.268983" stroke-linecap="round" />
<path d="M 224 144.529 C 144.374 173.639, 80.4135 154.918, 32.1196 88.3659" fill="none" stroke="#7571bc" stroke-opacity="0.501961" stroke-width="0.268983" stroke-linecap="round" />
<path d="M 35.029 83.996 C 46.9881 130.671, 105.655 157.857, 211.03 165.553" fill="none" stroke="#7571c0" stroke-opacity="0.501961" stroke-width="0.268983" stroke-linecap="round" />
<path d="M 30.0443 144.445 C 127.657 161.86, 189.144 162.618, 214.504 146.721" fill="none" stroke="#8b70ba" stroke-opacity="0.501961" stroke-width="0.268983" stroke-linecap="round" />
<path d="M 153.699 67.434 C 194.984 62.314, 211.716 100.722, 203.895 182.659" fill="none" stroke="#6d77cf" stroke-opacity="0.501961" stroke-width="0.268983" stroke-linecap="round" />
<path d="M 32.9141 155.598 C 123.45 155.785, 185.119 161.55, 217.923 172.891" fill="none" stroke="#8b71c0" stroke-opacity="0.501961" stroke-width="0.268983" stroke-linecap="round" />
<path d="M 216.002 169.434 C 171.799 152.633, 109.102 152.008, 27.9132 167.56" fill="none" stroke="#8e6ebb" stroke-opacity="0.501961" stroke-width="0.268983" stroke-linecap="round" />
<path d="M 50.572 160.114 C 129.915 160.839, 187.725 161.264, 224 161.39" fill="none" stroke="#7f76ca" stroke-opacity="0.501961" stroke-width="0.268983" stroke-linecap="round" />
<path d="M 34.5438 185.388 C 47.3897 144.353, 110.542 140.335, 224 173.334" fill="none" stroke="#9067ad" stroke-opacity="0.501961" stroke-width="0.268983" stroke-linecap="round" />
<path d="M 30.8065 156.28 C 131.317 179.466, 175.247 148.41, 162.597 63.1133" fill="none" stroke="#985a9b" stroke-opacity="0.501961" stroke-width="0.268983" stroke-linecap="round" />
<path d="M 136.637 157.779 C 164.924 154.032, 194.045 157.983, 224 169.634" fill="none" stroke="#7a90f2" stroke-opacity="0.501961" stroke-width="0.268983" stroke-linecap="round" />
<path d="M 219.272 191.144 C 158.244 127.305, 143.778 83.6396, 175.872 60.147" fill="none" stroke="#956aba" stroke-opacity="0.501961" stroke-width="0.268983" stroke-linecap="round" />
<path d="M 224 -0.730631 C 83.0888 -2.61506, 13.1933 9.5805, 14.3136 35.8561" fill="none" stroke="#000000" stroke-opacity="0.501961" stroke-width="0.268983" stroke-linecap="round" />
<path d="M 46.037 65.9679 C 32.767 140.474, 88.7109 172.985, 213.869 163.502" fill="none" stroke="#786bb5" stroke-opacity="0.501961" stroke-width="0.268983" stroke-linecap="round" />
<path d="M 23.3231 183.524 C 141.687 181.978, 186.603 141.397, 158.073 61.7806" fill="none" stroke="#8a5699" stroke-opacity="0.501961" stroke-width="0.268983" stroke-linecap="round" />
<path d="M 27.0798 119.161 C 104.345 174.314, 169.985 179.051, 224 133.372" fill="none" stroke="#8364a7" stroke-opacity="0.501961" stroke-width="0.268983" stroke-linecap="round" />
<path d="M 65.8276 108.799 C 82.8367 161.508, 135.561 174.78, 224 148.615" fill="none" stroke="#7276c6" stroke-opacity="0.501961" stroke-width="0.268983" stroke-linecap="round" />
<path d="M 224 158.632 C 102.643 165.192, 43.7838 148.05, 47.4213 107.205" fill="none" stroke="#866db8" stroke-opacity="0.501961" stroke-width="0.268983" stroke-linecap="round" />
<path d="M 224 136.903 C 147.614 70.3494, 84.3838 85.8384, 34.3093 183.37" fill="none" stroke="#9d4981" stroke-opacity="0.501961" stroke-width="0.268983" stroke-linecap="round" />
<path d="M 208.955 156.454 C 87.9977 155.983, 28.2461 143.316, 29.6998 118.456" fill="none" stroke="#8a65a6" stroke-opacity="0.501961" stroke-width="0.268983" stroke-linecap="round" />
<path d="M 157.22 61.3443 C 183.132 101.892, 196.587 151.379, 197.585 209.805" fill="none" stroke="#8767b5" stroke-opacity="0.501961" stroke-width="0.268983" stroke-linecap="round" />
<path d="M 32.3463 62.9045 C 52.0569 138.447, 115.941 169.49, 224 156.034" fill="none" stroke="#6c6fbe" stroke-opacity="0.501961" stroke-width="0.268983" stroke-linecap="round" />
<path d="M 210.17 110.989 C 90.8361 84.2025, 37.0851 117.312, 48.9164 210.318" fill="none" stroke="#9b4a84" stroke-opacity="0.501961" stroke-width="0.268983" stroke-linecap="round" />
<path d="M 160.768 55.9616 C 175.511 146.259, 131.348 180.607, 28.2791 159.005" fill="none" stroke="#8f5694" stroke-opacity="0.501961" stroke-width="0.268983" stroke-linecap="round" />
<path d="M -16 9.91449 C -16 7.00112, 64 6.19894, 224 7.50795" fill="none" stroke="#000000" stroke-opacity="0.501961" stroke-width="0.268983" stroke-linecap="round" />
<path d="M 195.746 195.941 C 214.582 114.009, 200.272 70.0156, 152.816 63.9622" fill="none" stroke="#6a74cb" stroke-opacity="0.501961" stroke-width="0.268983" stroke-linecap="round" />
<path d="M 82.4793 134.333 C 39.2788 127.326, 24.9031 144.589, 39.3523 186.121" fill="none" stroke="#dc4577" stroke-opacity="0.501961" stroke-width="0.268983" stroke-linecap="round" />
<path d="M 194.449 199.449 C 214.15 110.845, 198.5 66.4866, 147.5 66.3744" fill="none" stroke="#6870c4" stroke-opacity="0.501961" stroke-width="0.268983" stroke-linecap="round" />
<path d="M 224 120.2 C 107.856 78.9463, 43.9358 105.102, 32.2405 198.666" fill="none" stroke="#9f4a83" stroke-opacity="0.501961" stroke-width="0.268983" stroke-linecap="round" />
<path d="M 211.288 155.717 C 115.757 184.86, 56.379 155.553, 33.1526 67.7968" fill="none" stroke="#6f65ae" stroke-opacity="0.501961" stroke-width="0.268983" stroke-linecap="round" />
<path d="M 217.171 113.669 C 93.6037 87.7849, 32.7921 110.841, 34.7362 182.837" fill="none" stroke="#a24c86" stroke-opacity="0.501961" stroke-width="0.268983" stroke-linecap="round" />
<path d="M 210.699 183.122 C 161.843 136.444, 147.105 95.4899, 166.484 60.2584" fill="none" stroke="#9567b6" stroke-opacity="0.501961" stroke-width="0.268983" stroke-linecap="round" />
<path d="M 216.62 175.007 C 136.328 148.166, 75.607 152.433, 34.4569 187.808" fill="none" stroke="#8466b0" stroke-opacity="0.501961" stroke-width="0.268983" stroke-linecap="round" />
<path d="M 215.546 175.294 C 173.002 145.392, 155.887 107.652, 164.201 62.0733" fill="none" stroke="#9b68b6" stroke-opacity="0.501961" stroke-width="0.268983" stroke-linecap="round" />
<path d="M 38.1704 201.901 C 44.2784 104.954, 106.222 78.8467, 224 123.579" fill="none" stroke="#99487f" stroke-opacity="0.501961" stroke-width="0.268983" stroke-linecap="round" />
<path d="M 37.2238 122.453 C 139.672 152.382, 201.931 172.097, 224 181.597" fill="none" stroke="#7769b0" stroke-opacity="0.501961" stroke-width="0.268983" stroke-linecap="round" />
<path d="M 218.597 165.781 C 153.851 166.728, 136.46 133.426, 166.424 65.8739" fill="none" stroke="#976cbf" stroke-opacity="0.501961" stroke-width="0.268983" stroke-linecap="round" />
<path d="M 208.766 157.807 C 201.958 157.727, 142.09 158.024, 29.163 158.697" fill="none" stroke="#7f6eba" stroke-opacity="0.501961" stroke-width="0.268983" stroke-linecap="round" />
<path d="M 224 158.981 C 116.442 175.335, 61.1198 146.595, 58.0339 72.762" fill="none" stroke="#6a71c2" stroke-opacity="0.501961" stroke-width="0.268983" stroke-linecap="round" />
<path d="M 26.8459 164.598 C -1.71804 44.1992, 58.5642 -6.46238, 207.693 12.6128" fill="none" stroke="#000000" stroke-opacity="0.501961" stroke-width="0.268983" stroke-linecap="round" />
<path d="M 203.161 61.901 C 181.774 167.416, 123.977 190.734, 29.7689 131.856" fill="none" stroke="#8e508c" stroke-opacity="0.501961" stroke-width="0.268983" stroke-linecap="round" />
<path d="M 221 48 L -16 150 L 205 212 Z" fill="#66487e" fill-opacity="0.501961" />
<path d="M 18.5647 -4.20554 L 214.535 -0.784867 L 213.435 62.2055 L 17.4652 58.7849 Z" fill="#000000" fill-opacity="0.501961" />
<path d="M 33 66 L 28 187 L 92 182 Z" fill="#a33a68" fill-opacity="0.501961" />
<path d="M -4 146 L -5 254 L 72 271 Z" fill="#000003" fill-opacity="0.501961" />
<path d="M 167.364 63.636 C 170.879 67.1508, 170.879 72.8492, 167.364 76.364 C 163.849 79.8787, 158.151 79.8787, 154.636 76.364 C 151.121 72.8492, 151.121 67.1508, 154.636 63.636 C 158.151 60.1213, 163.849 60.1213, 167.364 63.636" fill="#9bafff" fill-opacity="0.501961" />
<path d="M 25.9497 78.8751 C 28.6834 118.709, 28.6834 183.291, 25.9497 223.125 C 23.2161 262.958, 18.7839 262.958, 16.0503 223.125 C 13.3166 183.291, 13.3166 118.709, 16.0503 78.8751 C 18.7839 39.0416, 23.2161 39.0416, 25.9497 78.8751" fill="#030003" fill-opacity="0.501961" />
<path d="M 77.9203 66.0797 C 90.0266 78.1859, 90.0266 97.8141, 77.9203 109.92 C 65.8141 122.027, 46.1859 122.027, 34.0797 109.92 C 21.9734 97.8141, 21.9734 78.1859, 34.0797 66.0797 C 46.1859 53.9734, 65.8141 53.9734, 77.9203 66.0797" fill="#364985" fill-opacity="0.501961" />
<path d="M 18.1217 10.3579 C 19.1627 25.8256, 11.8933 47.9624, 1.88491 59.8017 C -8.12343 71.641, -17.0807 68.6995, -18.1217 53.2317 C -19.1627 37.764, -11.8933 15.6272, -1.88491 3.78791 C 8.12343 -8.05139, 17.0807 -5.10992, 18.1217 10.3579" fill="#000000" fill-opacity="0.501961" />
<path d="M 189.213 97.7868 C 200.929 109.503, 200.929 128.497, 189.213 140.213 C 177.497 151.929, 158.503 151.929, 146.787 140.213 C 135.071 128.497, 135.071 109.503, 146.787 97.7868 C 158.503 86.0711, 177.497 86.0711, 189.213 97.7868" fill="#8e234d" fill-opacity="0.501961" />
<path d="M 220.737 185.065 L 214.948 145.417 L 103.225 159.559 L 173.157 168.064 Z" fill="#516cb8" fill-opacity="0.501961" />
<path d="M 187.397 190.603 C 220.201 223.407, 220.201 276.593, 187.397 309.397 C 154.593 342.201, 101.407 342.201, 68.603 309.397 C 35.799 276.593, 35.799 223.407, 68.603 190.603 C 101.407 157.799, 154.593 157.799, 187.397 190.603" fill="#17193e" fill-opacity="0.501961" />
<path d="M 104.813 57.5043 L 154.298 69.8423 L 135.187 146.496 L 85.7015 134.158 Z" fill="#1b2a55" fill-opacity="0.501961" />
<path d="M 30 130.5 L 74 130.5 L 74 185.5 L 30 185.5 Z" fill="#9e2d54" fill-opacity="0.501961" />
<path d="M 43 220 L 121 233 L 155 271 Z" fill="#060006" fill-opacity="0.501961" />
<path d="M -6 212 L 53 240 L 47 218 Z" fill="#3e255d" fill-opacity="0.501961" />
<path d="M 224 207 L 101 131 L 47 212 Z" fill="#2f3a69" fill-opacity="0.501961" />
<path d="M 168 227 L 178 227 L 178 233 L 168 233 Z" fill="#9280fc" fill-opacity="0.501961" />
<path d="M 59.8284 71.1716 C 61.3905 72.7337, 61.3905 75.2663, 59.8284 76.8284 C 58.2663 78.3905, 55.7337 78.3905, 54.1716 76.8284 C 52.6095 75.2663, 52.6095 72.7337, 54.1716 71.1716 C 55.7337 69.6095, 58.2663 69.6095, 59.8284 71.1716" fill="#a9abff" fill-opacity="0.501961" />
<path d="M 206 267 L 224 251 L 140 229 Z" fill="#080009" fill-opacity="0.501961" />
<path d="M 154.091 73.1706 L 156.118 62.1047 L 177.878 64.4432 L 162.713 75.6943 Z" fill="#7c80ff" fill-opacity="0.501961" />
<path d="M 102 63 L 224 -2 L -16 1 Z" fill="#09001b" fill-opacity="0.501961" />
<path d="M 7.77817 136.515 C 12.0739 141.201, 12.0739 148.799, 7.77817 153.485 C 3.48241 158.172, -3.48241 158.172, -7.77817 153.485 C -12.0739 148.799, -12.0739 141.201, -7.77817 136.515 C -3.48241 131.828, 3.48241 131.828, 7.77817 136.515" fill="#5269b5" fill-opacity="0.501961" />
<path d="M 29 70 L 59 70 L 59 76 L 29 76 Z" fill="#6f75d9" fill-opacity="0.501961" />
<path d="M 62 61 L 68 61 L 68 66 L 62 66 Z" fill="#b2aaff" fill-opacity="0.501961" />
<path d="M 196.531 100.101 C 207.432 103.374, 207.325 108.293, 196.291 111.088 C 185.257 113.882, 167.476 113.494, 156.575 110.221 C 145.673 106.948, 145.781 102.029, 156.814 99.2342 C 167.848 96.4396, 185.63 96.8277, 196.531 100.101" fill="#8c4882" fill-opacity="0.501961" />
<path d="M 215.728 65.2721 C 222.757 72.3015, 222.757 83.6985, 215.728 90.7279 C 208.698 97.7574, 197.302 97.7574, 190.272 90.7279 C 183.243 83.6985, 183.243 72.3015, 190.272 65.2721 C 197.302 58.2426, 208.698 58.2426, 215.728 65.2721" fill="#34488d" fill-opacity="0.501961" />
<path d="M 46.3061 198.91 C 51.248 198.65, 58.105 201.262, 61.6217 204.744 C 65.1385 208.226, 63.9832 211.258, 59.0413 211.518 C 54.0995 211.778, 47.2424 209.166, 43.7257 205.684 C 40.209 202.202, 41.3643 199.169, 46.3061 198.91" fill="#6b4386" fill-opacity="0.501961" />
<path d="M 82 104 L 103 104 L 103 107 L 82 107 Z" fill="#7276e1" fill-opacity="0.501961" />
<path d="M 224 263 L 147 241 L 190 268 Z" fill="#5a3f8d" fill-opacity="0.501961" />
<path d="M -16 206 L -16 254 L 82 260 Z" fill="#05000c" fill-opacity="0.501961" />
<path d="M 17.1213 33.9081 C 18.2929 44.4523, 18.2929 61.5477, 17.1213 72.0919 C 15.9497 82.636, 14.0503 82.636, 12.8787 72.0919 C 11.7071 61.5477, 11.7071 44.4523, 12.8787 33.9081 C 14.0503 23.364, 15.9497 23.364, 17.1213 33.9081" fill="#38459c" fill-opacity="0.501961" />
<path d="M 28 82 L 95 82 L 95 115 L 28 115 Z" fill="#32325d" fill-opacity="0.501961" />
<path d="M 83.7534 143.144 L 38.305 105.077 L 66.0612 108.857 L 87.9398 140.658 Z" fill="#734a87" fill-opacity="0.501961" />
<path d="M 170 97 L 153 62 L 43 66 Z" fill="#2a2e5f" fill-opacity="0.501961" />
<path d="M 31.2549 92.9719 L 23.8595 148.618 L 7.68056 192.146 L 24.8033 29.3122 Z" fill="#10061a" fill-opacity="0.501961" />
</g>
</svg>
