<svg version="1.1" width="737" height="608" xmlns="http://www.w3.org/2000/svg">
<rect x="0" y="0" width="737" height="608" fill="#12141f" />
<g transform="scale(2.87891, 2.88152)">
<path d="M 271 19 L 13 -16 L -16 76 Z" fill="#474d77" fill-opacity="0.501961" />
<path d="M 271 226 L -16 202 L 213 45 Z" fill="#000000" fill-opacity="0.501961" />
<path d="M 99 57 L 264 -16 L 248 45 Z" fill="#3a3f61" fill-opacity="0.501961" />
<path d="M 3 225 L -14 109 L 172 68 Z" fill="#030304" fill-opacity="0.501961" />
<path d="M 178 28 L 108 -16 L 69 27 Z" fill="#495079" fill-opacity="0.501961" />
<path d="M 100 -16 L 57 14 L -16 4 Z" fill="#000000" fill-opacity="0.501961" />
<path d="M 271 39 L -2 226 L 271 222 Z" fill="#040405" fill-opacity="0.501961" />
<path d="M 157 49 L -16 51 L -16 98 Z" fill="#181a27" fill-opacity="0.501961" />
<path d="M 150 -16 L 214 4 L 183 23 Z" fill="#050507" fill-opacity="0.501961" />
<path d="M 265 -16 L 186 27 L 271 17 Z" fill="#42496e" fill-opacity="0.501961" />
<path d="M 204 118 L 192 96 L 241 86 Z" fill="#1b1f2f" fill-opacity="0.501961" />
<path d="M 170 8 L 256 59 L 121 55 Z" fill="#272b41" fill-opacity="0.501961" />
<path d="M -16 56 L 117 152 L 128 70 Z" fill="#11131d" fill-opacity="0.501961" />
<path d="M 139 33 L 72 -4 L 161 2 Z" fill="#40466b" fill-opacity="0.501961" />
<path d="M 49 61 L -16 17 L 93 4 Z" fill="#30344f" fill-opacity="0.501961" />
<path d="M 224 22 L 271 22 L 249 69 Z" fill="#1b1e2e" fill-opacity="0.501961" />
<path d="M 94 106 L -16 122 L 15 226 Z" fill="#050508" fill-opacity="0.501961" />
<path d="M -16 11 L 35 -16 L 35 17 Z" fill="#12141e" fill-opacity="0.501961" />
<path d="M 66 42 L 46 68 L 152 60 Z" fill="#1b1e2e" fill-opacity="0.501961" />
<path d="M 89 201 L 135 129 L 30 77 Z" fill="#0b0c13" fill-opacity="0.501961" />
<path d="M 179 47 L 76 44 L 128 31 Z" fill="#373c5c" fill-opacity="0.501961" />
<path d="M 258 191 L 271 53 L 235 109 Z" fill="#010204" fill-opacity="0.501961" />
<path d="M 178 48 L 112 101 L 238 46 Z" fill="#0e0f18" fill-opacity="0.501961" />
<path d="M 155 45 L 201 44 L 189 35 Z" fill="#373c5c" fill-opacity="0.501961" />
<path d="M 51 33 L -16 37 L 16 47 Z" fill="#3c4264" fill-opacity="0.501961" />
<path d="M 218 6 L 270 5 L 202 -16 Z" fill="#292d45" fill-opacity="0.501961" />
<path d="M 199 92 L 195 100 L 210 107 Z" fill="#2d314b" fill-opacity="0.501961" />
<path d="M 62 63 L -16 40 L -16 95 Z" fill="#1c1f2f" fill-opacity="0.501961" />
<path d="M 51 9 L 66 29 L 75 1 Z" fill="#1e2133" fill-opacity="0.501961" />
<path d="M -10 15 L -16 30 L 42 25 Z" fill="#3d4266" fill-opacity="0.501961" />
<path d="M 53 59 L 14 47 L 70 49 Z" fill="#333856" fill-opacity="0.501961" />
<path d="M 242 6 L 208 31 L 175 28 Z" fill="#3d4265" fill-opacity="0.501961" />
<path d="M 216 50 L 238 56 L 229 62 Z" fill="#2e324e" fill-opacity="0.501961" />
<path d="M 86 56 L 71 41 L 31 42 Z" fill="#1e2132" fill-opacity="0.501961" />
<path d="M 4 3 L 87 -16 L 63 6 Z" fill="#090a0f" fill-opacity="0.501961" />
<path d="M 137 38 L 176 25 L 209 37 Z" fill="#24283e" fill-opacity="0.501961" />
<path d="M 182 31 L 92 28 L 158 4 Z" fill="#393e5f" fill-opacity="0.501961" />
<path d="M 217 -2 L 177 2 L 180 19 Z" fill="#090a0f" fill-opacity="0.501961" />
<path d="M 3 15 L 40 20 L 44 3 Z" fill="#23263b" fill-opacity="0.501961" />
<path d="M 105 51 L 100 34 L 50 34 Z" fill="#363c5b" fill-opacity="0.501961" />
<path d="M 75 15 L 166 13 L 93 -13 Z" fill="#3e4468" fill-opacity="0.501961" />
<path d="M 209 100 L 246 60 L 192 87 Z" fill="#050609" fill-opacity="0.501961" />
<path d="M 128 67 L 94 113 L 64 51 Z" fill="#141622" fill-opacity="0.501961" />
<path d="M 200 64 L 115 117 L 133 63 Z" fill="#0a0b11" fill-opacity="0.501961" />
<path d="M 138 63 L 167 45 L 215 49 Z" fill="#1d1f30" fill-opacity="0.501961" />
<path d="M 249 70 L 191 113 L 228 109 Z" fill="#11121d" fill-opacity="0.501961" />
<path d="M 239 35 L 226 36 L 220 49 Z" fill="#363b5b" fill-opacity="0.501961" />
<path d="M 245 29 L 238 59 L 271 59 Z" fill="#141622" fill-opacity="0.501961" />
<path d="M -16 101 L -16 222 L 144 226 Z" fill="#06070a" fill-opacity="0.501961" />
<path d="M 233 3 L 221 -6 L 184 22 Z" fill="#24273c" fill-opacity="0.501961" />
<path d="M 86 86 L 78 180 L 100 162 Z" fill="#0e1018" fill-opacity="0.501961" />
<path d="M 26 82 L 87 85 L -16 120 Z" fill="#0d0e15" fill-opacity="0.501961" />
<path d="M 190 31 L 271 11 L 218 7 Z" fill="#3c4165" fill-opacity="0.501961" />
<path d="M 74 23 L 29 31 L 57 34 Z" fill="#24273d" fill-opacity="0.501961" />
<path d="M 149 32 L 110 32 L 133 40 Z" fill="#24273c" fill-opacity="0.501961" />
<path d="M 227 119 L 138 81 L 119 161 Z" fill="#06060a" fill-opacity="0.501961" />
<path d="M -16 0 L 16 8 L 6 21 Z" fill="#23263b" fill-opacity="0.501961" />
<path d="M 98 62 L 55 41 L 157 53 Z" fill="#202337" fill-opacity="0.501961" />
<path d="M 180 11 L 161 3 L 172 40 Z" fill="#262a40" fill-opacity="0.501961" />
<path d="M 209 106 L 222 106 L 225 82 Z" fill="#191b2a" fill-opacity="0.501961" />
<path d="M 86 37 L 145 38 L 115 47 Z" fill="#393e5f" fill-opacity="0.501961" />
<path d="M 244 52 L 244 73 L 207 95 Z" fill="#05060a" fill-opacity="0.501961" />
<path d="M 156 1 L 72 8 L 144 28 Z" fill="#3e4468" fill-opacity="0.501961" />
<path d="M 63 28 L 26 22 L 51 18 Z" fill="#383d5e" fill-opacity="0.501961" />
<path d="M 266 33 L 220 29 L 271 17 Z" fill="#282c43" fill-opacity="0.501961" />
<path d="M 112 30 L 88 37 L 57 24 Z" fill="#272b41" fill-opacity="0.501961" />
<path d="M 164 -13 L 120 0 L 151 0 Z" fill="#1b1d2d" fill-opacity="0.501961" />
<path d="M 16 26 L -5 34 L 38 31 Z" fill="#23273b" fill-opacity="0.501961" />
<path d="M 23 14 L 0 0 L 55 -16 Z" fill="#0f1019" fill-opacity="0.501961" />
<path d="M 142 74 L 221 50 L 212 80 Z" fill="#0c0d14" fill-opacity="0.501961" />
<path d="M 241 71 L 222 97 L 230 76 Z" fill="#020204" fill-opacity="0.501961" />
<path d="M 188 98 L 258 66 L 214 71 Z" fill="#08080d" fill-opacity="0.501961" />
<path d="M 243 65 L 214 73 L 239 75 Z" fill="#050609" fill-opacity="0.501961" />
<path d="M 221 56 L 229 57 L 223 48 Z" fill="#303551" fill-opacity="0.501961" />
<path d="M 236 57 L 244 50 L 231 39 Z" fill="#23263b" fill-opacity="0.501961" />
<path d="M 221 55 L 221 41 L 175 53 Z" fill="#1a1d2c" fill-opacity="0.501961" />
<path d="M 233 50 L 224 51 L 226 47 Z" fill="#07080c" fill-opacity="0.501961" />
<path d="M 220 49 L 216 58 L 221 52 Z" fill="#0d0e16" fill-opacity="0.501961" />
<path d="M 225 47 L 224 52 L 228 46 Z" fill="#0d0e17" fill-opacity="0.501961" />
<path d="M 182 56 L 209 66 L 225 59 Z" fill="#0d0f17" fill-opacity="0.501961" />
<path d="M 206 49 L 218 50 L 219 57 Z" fill="#141521" fill-opacity="0.501961" />
<path d="M 220 50 L 203 47 L 210 51 Z" fill="#181a29" fill-opacity="0.501961" />
<path d="M 232 33 L 224 38 L 206 33 Z" fill="#181b29" fill-opacity="0.501961" />
<path d="M 218 49 L 204 47 L 221 44 Z" fill="#1c1e2f" fill-opacity="0.501961" />
<path d="M 206 60 L 190 59 L 221 51 Z" fill="#11141e" fill-opacity="0.501961" />
<path d="M 220 51 L 211 48 L 211 54 Z" fill="#161825" fill-opacity="0.501961" />
<path d="M 225 69 L 229 64 L 219 69 Z" fill="#303552" fill-opacity="0.501961" />
<path d="M 238 52 L 228 57 L 220 55 Z" fill="#313551" fill-opacity="0.501961" />
<path d="M 225 57 L 221 57 L 222 61 Z" fill="#08090f" fill-opacity="0.501961" />
<path d="M 227 68 L 219 64 L 228 65 Z" fill="#24273c" fill-opacity="0.501961" />
<path d="M 222 84 L 189 88 L 219 62 Z" fill="#090a0f" fill-opacity="0.501961" />
<path d="M 233 65 L 223 63 L 224 60 Z" fill="#0a0b11" fill-opacity="0.501961" />
<path d="M 239 34 L 247 41 L 232 40 Z" fill="#24273c" fill-opacity="0.501961" />
<path d="M 230 36 L 228 44 L 219 48 Z" fill="#363b5b" fill-opacity="0.501961" />
<path d="M 231 34 L 224 40 L 237 34 Z" fill="#333855" fill-opacity="0.501961" />
<path d="M 270 32 L 246 60 L 240 31 Z" fill="#191b2a" fill-opacity="0.501961" />
<path d="M 244 38 L 229 42 L 241 35 Z" fill="#25293f" fill-opacity="0.501961" />
<path d="M 244 43 L 227 50 L 244 35 Z" fill="#1f2233" fill-opacity="0.501961" />
<path d="M 244 52 L 241 44 L 234 61 Z" fill="#1b1e2e" fill-opacity="0.501961" />
<path d="M 231 62 L 238 43 L 239 55 Z" fill="#23263b" fill-opacity="0.501961" />
<path d="M 271 51 L 260 37 L 242 70 Z" fill="#161826" fill-opacity="0.501961" />
<path d="M 250 53 L 247 52 L 248 50 Z" fill="#08080e" fill-opacity="0.501961" />
<path d="M 255 50 L 240 46 L 244 41 Z" fill="#1a1d2d" fill-opacity="0.501961" />
<path d="M 249 47 L 248 49 L 251 47 Z" fill="#272a40" fill-opacity="0.501961" />
<path d="M 233 46 L 239 46 L 239 50 Z" fill="#23263b" fill-opacity="0.501961" />
<path d="M 247 51 L 240 55 L 244 45 Z" fill="#151724" fill-opacity="0.501961" />
<path d="M 250 58 L 252 50 L 249 55 Z" fill="#212538" fill-opacity="0.501961" />
<path d="M 262 52 L 251 34 L 255 53 Z" fill="#0f111a" fill-opacity="0.501961" />
<path d="M 258 44 L 271 19 L 247 24 Z" fill="#1f2234" fill-opacity="0.501961" />
<path d="M 256 46 L 247 47 L 249 33 Z" fill="#171926" fill-opacity="0.501961" />
<path d="M 240 76 L 233 86 L 258 71 Z" fill="#161826" fill-opacity="0.501961" />
<path d="M 266 65 L 259 43 L 251 58 Z" fill="#0f1119" fill-opacity="0.501961" />
<path d="M 254 62 L 252 56 L 244 68 Z" fill="#1a1c2b" fill-opacity="0.501961" />
<path d="M 264 59 L 254 72 L 241 71 Z" fill="#050609" fill-opacity="0.501961" />
<path d="M 258 74 L 246 74 L 268 68 Z" fill="#161826" fill-opacity="0.501961" />
<path d="M 246 63 L 243 69 L 251 60 Z" fill="#1c1e2f" fill-opacity="0.501961" />
<path d="M 248 68 L 256 72 L 245 72 Z" fill="#06070b" fill-opacity="0.501961" />
<path d="M 230 65 L 230 69 L 226 70 Z" fill="#08080e" fill-opacity="0.501961" />
<path d="M 233 63 L 204 100 L 242 72 Z" fill="#07070b" fill-opacity="0.501961" />
<path d="M 238 67 L 234 73 L 241 76 Z" fill="#05060a" fill-opacity="0.501961" />
<path d="M 198 75 L 226 83 L 229 75 Z" fill="#0a0b11" fill-opacity="0.501961" />
<path d="M 271 82 L 236 85 L 217 124 Z" fill="#08090e" fill-opacity="0.501961" />
<path d="M 229 82 L 188 81 L 210 61 Z" fill="#090a0f" fill-opacity="0.501961" />
<path d="M 233 75 L 219 72 L 226 70 Z" fill="#040508" fill-opacity="0.501961" />
<path d="M 219 70 L 221 67 L 225 67 Z" fill="#292d46" fill-opacity="0.501961" />
<path d="M 228 64 L 225 64 L 224 69 Z" fill="#22263b" fill-opacity="0.501961" />
<path d="M 221 67 L 212 82 L 190 83 Z" fill="#090a0f" fill-opacity="0.501961" />
<path d="M 228 62 L 230 63 L 231 58 Z" fill="#1c1e2f" fill-opacity="0.501961" />
<path d="M 223 64 L 220 66 L 221 64 Z" fill="#272a41" fill-opacity="0.501961" />
<path d="M 221 64 L 203 61 L 218 56 Z" fill="#0d0d15" fill-opacity="0.501961" />
<path d="M 219 61 L 225 64 L 223 61 Z" fill="#161825" fill-opacity="0.501961" />
<path d="M 225 58 L 219 57 L 224 52 Z" fill="#2a2e47" fill-opacity="0.501961" />
<path d="M 226 63 L 227 63 L 225 62 Z" fill="#000102" fill-opacity="0.501961" />
<path d="M 226 58 L 223 55 L 226 61 Z" fill="#202336" fill-opacity="0.501961" />
<path d="M 225 67 L 208 58 L 206 63 Z" fill="#0b0c13" fill-opacity="0.501961" />
<path d="M 222 51 L 220 48 L 221 51 Z" fill="#0a0c13" fill-opacity="0.501961" />
<path d="M 221 57 L 222 54 L 220 57 Z" fill="#373c5d" fill-opacity="0.501961" />
<path d="M 217 58 L 202 62 L 206 57 Z" fill="#0e1018" fill-opacity="0.501961" />
<path d="M 213 56 L 221 53 L 216 57 Z" fill="#10131c" fill-opacity="0.501961" />
<path d="M 224 64 L 225 58 L 223 58 Z" fill="#0c0e16" fill-opacity="0.501961" />
<path d="M 220 61 L 221 63 L 223 62 Z" fill="#1a1c2c" fill-opacity="0.501961" />
<path d="M 208 66 L 220 59 L 209 62 Z" fill="#0b0c12" fill-opacity="0.501961" />
<path d="M 221 62 L 218 62 L 221 61 Z" fill="#090a10" fill-opacity="0.501961" />
<path d="M 226 60 L 233 52 L 227 56 Z" fill="#2e324d" fill-opacity="0.501961" />
<path d="M 206 107 L 222 84 L 214 82 Z" fill="#050609" fill-opacity="0.501961" />
<path d="M 244 63 L 229 68 L 243 56 Z" fill="#090a10" fill-opacity="0.501961" />
<path d="M 241 63 L 226 72 L 237 69 Z" fill="#07080c" fill-opacity="0.501961" />
<path d="M 231 89 L 223 96 L 226 97 Z" fill="#1c1e2f" fill-opacity="0.501961" />
<path d="M 230 89 L 234 89 L 231 90 Z" fill="#1c1e2f" fill-opacity="0.501961" />
<path d="M 217 97 L 215 104 L 226 104 Z" fill="#1c1e2e" fill-opacity="0.501961" />
<path d="M 213 103 L 195 108 L 221 112 Z" fill="#11131d" fill-opacity="0.501961" />
<path d="M 206 119 L 180 114 L 231 110 Z" fill="#08090e" fill-opacity="0.501961" />
<path d="M 231 89 L 219 81 L 224 87 Z" fill="#06070a" fill-opacity="0.501961" />
<path d="M 235 100 L 236 86 L 226 100 Z" fill="#0d0e16" fill-opacity="0.501961" />
<path d="M 184 86 L 212 99 L 217 88 Z" fill="#060609" fill-opacity="0.501961" />
<path d="M 271 80 L 249 75 L 233 95 Z" fill="#090a10" fill-opacity="0.501961" />
<path d="M 226 85 L 234 79 L 225 94 Z" fill="#040508" fill-opacity="0.501961" />
<path d="M 201 86 L 227 82 L 205 99 Z" fill="#07070b" fill-opacity="0.501961" />
<path d="M 214 102 L 208 92 L 204 98 Z" fill="#040508" fill-opacity="0.501961" />
<path d="M 225 71 L 218 90 L 200 87 Z" fill="#08090d" fill-opacity="0.501961" />
<path d="M 208 97 L 194 90 L 216 92 Z" fill="#06060a" fill-opacity="0.501961" />
<path d="M 214 88 L 185 81 L 207 97 Z" fill="#07070b" fill-opacity="0.501961" />
<path d="M 207 101 L 198 107 L 198 95 Z" fill="#262a40" fill-opacity="0.501961" />
<path d="M 209 103 L 207 87 L 213 94 Z" fill="#06060a" fill-opacity="0.501961" />
<path d="M 195 103 L 197 94 L 203 97 Z" fill="#2c314b" fill-opacity="0.501961" />
<path d="M 202 97 L 215 92 L 208 90 Z" fill="#06060a" fill-opacity="0.501961" />
<path d="M 211 100 L 216 98 L 211 103 Z" fill="#0e0f18" fill-opacity="0.501961" />
<path d="M 205 91 L 214 97 L 208 96 Z" fill="#06070a" fill-opacity="0.501961" />
<path d="M 196 100 L 206 102 L 198 111 Z" fill="#161825" fill-opacity="0.501961" />
<path d="M 209 100 L 204 103 L 198 100 Z" fill="#1f2234" fill-opacity="0.501961" />
<path d="M 195 108 L 191 142 L 211 109 Z" fill="#0a0b12" fill-opacity="0.501961" />
<path d="M 195 105 L 200 116 L 207 106 Z" fill="#10121b" fill-opacity="0.501961" />
<path d="M 153 99 L 191 82 L 196 99 Z" fill="#050608" fill-opacity="0.501961" />
<path d="M 187 96 L 201 90 L 190 102 Z" fill="#050609" fill-opacity="0.501961" />
<path d="M 164 82 L 209 87 L 135 117 Z" fill="#07080b" fill-opacity="0.501961" />
<path d="M 188 111 L 170 95 L 195 96 Z" fill="#06060a" fill-opacity="0.501961" />
<path d="M 193 111 L 181 114 L 193 123 Z" fill="#040508" fill-opacity="0.501961" />
<path d="M 195 99 L 197 103 L 195 101 Z" fill="#25293f" fill-opacity="0.501961" />
<path d="M 186 108 L 180 110 L 187 111 Z" fill="#040608" fill-opacity="0.501961" />
<path d="M 172 82 L 181 98 L 152 120 Z" fill="#06070a" fill-opacity="0.501961" />
<path d="M 195 134 L 190 119 L 176 126 Z" fill="#040608" fill-opacity="0.501961" />
<path d="M 202 143 L 192 137 L 193 133 Z" fill="#191c2a" fill-opacity="0.501961" />
<path d="M 213 189 L 133 183 L 187 128 Z" fill="#040406" fill-opacity="0.501961" />
<path d="M 227 77 L 226 82 L 210 75 Z" fill="#0a0b10" fill-opacity="0.501961" />
<path d="M 218 100 L 222 87 L 215 94 Z" fill="#181a29" fill-opacity="0.501961" />
<path d="M 208 102 L 218 88 L 208 92 Z" fill="#05060a" fill-opacity="0.501961" />
<path d="M 230 83 L 186 87 L 211 92 Z" fill="#07080c" fill-opacity="0.501961" />
<path d="M 205 100 L 208 93 L 200 82 Z" fill="#06070b" fill-opacity="0.501961" />
<path d="M 223 82 L 226 82 L 226 80 Z" fill="#0f111b" fill-opacity="0.501961" />
<path d="M 216 86 L 206 89 L 218 80 Z" fill="#07080c" fill-opacity="0.501961" />
<path d="M 224 93 L 219 100 L 222 99 Z" fill="#06070a" fill-opacity="0.501961" />
<path d="M 225 85 L 224 92 L 227 85 Z" fill="#0a0c12" fill-opacity="0.501961" />
<path d="M 226 83 L 224 83 L 227 80 Z" fill="#090b11" fill-opacity="0.501961" />
<path d="M 231 86 L 226 83 L 235 77 Z" fill="#05060a" fill-opacity="0.501961" />
<path d="M 232 85 L 243 82 L 239 77 Z" fill="#141724" fill-opacity="0.501961" />
<path d="M 244 76 L 240 84 L 247 81 Z" fill="#0e0f18" fill-opacity="0.501961" />
<path d="M 241 81 L 244 77 L 235 83 Z" fill="#171926" fill-opacity="0.501961" />
<path d="M 240 93 L 271 82 L 246 109 Z" fill="#08090d" fill-opacity="0.501961" />
<path d="M 224 100 L 240 104 L 253 94 Z" fill="#08090e" fill-opacity="0.501961" />
<path d="M 254 79 L 242 104 L 241 86 Z" fill="#090a0f" fill-opacity="0.501961" />
<path d="M 245 87 L 237 87 L 235 101 Z" fill="#0a0b11" fill-opacity="0.501961" />
<path d="M 258 84 L 244 79 L 258 80 Z" fill="#07080d" fill-opacity="0.501961" />
<path d="M 236 90 L 242 89 L 248 80 Z" fill="#0b0c13" fill-opacity="0.501961" />
<path d="M 245 90 L 250 92 L 244 95 Z" fill="#08090f" fill-opacity="0.501961" />
<path d="M 247 101 L 251 94 L 255 103 Z" fill="#07080c" fill-opacity="0.501961" />
<path d="M 246 110 L 271 111 L 256 100 Z" fill="#08070b" fill-opacity="0.501961" />
<path d="M 252 104 L 263 117 L 229 112 Z" fill="#07070b" fill-opacity="0.501961" />
<path d="M 253 141 L 230 123 L 267 113 Z" fill="#040507" fill-opacity="0.501961" />
<path d="M 239 115 L 199 150 L 271 204 Z" fill="#050609" fill-opacity="0.501961" />
<path d="M 253 162 L 238 124 L 227 161 Z" fill="#07070b" fill-opacity="0.501961" />
<path d="M 244 132 L 234 156 L 248 142 Z" fill="#06080b" fill-opacity="0.501961" />
<path d="M 248 149 L 253 151 L 257 160 Z" fill="#050508" fill-opacity="0.501961" />
<path d="M 252 171 L 245 148 L 253 136 Z" fill="#06060a" fill-opacity="0.501961" />
<path d="M 215 114 L 237 102 L 234 124 Z" fill="#07080c" fill-opacity="0.501961" />
<path d="M 217 127 L 188 120 L 225 117 Z" fill="#06070a" fill-opacity="0.501961" />
<path d="M 224 101 L 229 103 L 214 110 Z" fill="#12141f" fill-opacity="0.501961" />
<path d="M 216 107 L 222 111 L 224 109 Z" fill="#0a0b11" fill-opacity="0.501961" />
<path d="M 236 126 L 222 128 L 208 109 Z" fill="#06070a" fill-opacity="0.501961" />
<path d="M 229 120 L 201 118 L 211 112 Z" fill="#07080c" fill-opacity="0.501961" />
<path d="M 226 117 L 220 123 L 212 112 Z" fill="#07070b" fill-opacity="0.501961" />
<path d="M 197 113 L 212 118 L 217 114 Z" fill="#08090d" fill-opacity="0.501961" />
<path d="M 209 107 L 200 115 L 206 119 Z" fill="#08090e" fill-opacity="0.501961" />
<path d="M 194 138 L 201 119 L 202 137 Z" fill="#040508" fill-opacity="0.501961" />
<path d="M 196 125 L 213 134 L 199 120 Z" fill="#050608" fill-opacity="0.501961" />
<path d="M 193 133 L 200 136 L 198 131 Z" fill="#030405" fill-opacity="0.501961" />
<path d="M 201 130 L 195 139 L 204 138 Z" fill="#06070a" fill-opacity="0.501961" />
<path d="M 199 140 L 202 131 L 194 131 Z" fill="#05060a" fill-opacity="0.501961" />
<path d="M 198 136 L 202 137 L 201 131 Z" fill="#07070c" fill-opacity="0.501961" />
<path d="M 218 131 L 198 152 L 208 129 Z" fill="#040407" fill-opacity="0.501961" />
<path d="M 209 140 L 230 138 L 228 128 Z" fill="#050407" fill-opacity="0.501961" />
<path d="M 230 147 L 230 143 L 229 145 Z" fill="#07070b" fill-opacity="0.501961" />
<path d="M 239 138 L 266 139 L 241 161 Z" fill="#06070a" fill-opacity="0.501961" />
<path d="M 252 166 L 257 161 L 250 161 Z" fill="#07070b" fill-opacity="0.501961" />
<path d="M 256 187 L 243 173 L 255 171 Z" fill="#06060a" fill-opacity="0.501961" />
<path d="M 226 56 L 226 54 L 229 54 Z" fill="#393e5f" fill-opacity="0.501961" />
<path d="M 225 54 L 226 56 L 229 56 Z" fill="#343958" fill-opacity="0.501961" />
<path d="M 220 58 L 224 58 L 223 60 Z" fill="#07070c" fill-opacity="0.501961" />
<path d="M 214 60 L 220 58 L 217 58 Z" fill="#0e1019" fill-opacity="0.501961" />
<path d="M 225 60 L 233 55 L 229 60 Z" fill="#25283d" fill-opacity="0.501961" />
<path d="M 226 61 L 225 61 L 226 63 Z" fill="#06060a" fill-opacity="0.501961" />
<path d="M 223 60 L 222 60 L 222 61 Z" fill="#010001" fill-opacity="0.501961" />
<path d="M 222 63 L 219 60 L 220 59 Z" fill="#191b29" fill-opacity="0.501961" />
<path d="M 223 52 L 222 52 L 221 55 Z" fill="#323653" fill-opacity="0.501961" />
<path d="M 224 55 L 222 54 L 223 55 Z" fill="#2d314b" fill-opacity="0.501961" />
<path d="M 223 51 L 224 48 L 222 51 Z" fill="#1c1e2f" fill-opacity="0.501961" />
<path d="M 217 55 L 218 51 L 219 54 Z" fill="#151723" fill-opacity="0.501961" />
<path d="M 213 40 L 177 43 L 191 36 Z" fill="#353958" fill-opacity="0.501961" />
<path d="M 203 49 L 207 57 L 198 54 Z" fill="#151723" fill-opacity="0.501961" />
<path d="M 224 49 L 221 47 L 222 45 Z" fill="#2f344f" fill-opacity="0.501961" />
<path d="M 220 52 L 219 52 L 220 53 Z" fill="#0f1019" fill-opacity="0.501961" />
<path d="M 229 49 L 233 48 L 225 47 Z" fill="#171927" fill-opacity="0.501961" />
<path d="M 214 45 L 224 36 L 193 45 Z" fill="#272a42" fill-opacity="0.501961" />
<path d="M 235 55 L 237 51 L 229 51 Z" fill="#262a41" fill-opacity="0.501961" />
<path d="M 228 48 L 234 48 L 235 51 Z" fill="#10121c" fill-opacity="0.501961" />
<path d="M 229 46 L 227 47 L 227 48 Z" fill="#10111b" fill-opacity="0.501961" />
<path d="M 227 48 L 228 47 L 230 47 Z" fill="#23263b" fill-opacity="0.501961" />
<path d="M 233 61 L 227 58 L 236 58 Z" fill="#202335" fill-opacity="0.501961" />
<path d="M 199 68 L 216 63 L 212 60 Z" fill="#0b0c12" fill-opacity="0.501961" />
<path d="M 222 64 L 221 64 L 223 63 Z" fill="#040609" fill-opacity="0.501961" />
<path d="M 218 75 L 216 65 L 219 64 Z" fill="#08090d" fill-opacity="0.501961" />
<path d="M 217 75 L 218 66 L 220 75 Z" fill="#08090f" fill-opacity="0.501961" />
<path d="M 207 82 L 223 75 L 185 72 Z" fill="#0a0a10" fill-opacity="0.501961" />
<path d="M 208 80 L 203 79 L 205 65 Z" fill="#0b0c13" fill-opacity="0.501961" />
<path d="M 253 42 L 245 34 L 241 51 Z" fill="#191b2a" fill-opacity="0.501961" />
<path d="M 244 35 L 251 35 L 245 33 Z" fill="#0e0f18" fill-opacity="0.501961" />
<path d="M 257 43 L 253 38 L 256 40 Z" fill="#0c0d16" fill-opacity="0.501961" />
<path d="M 249 37 L 246 50 L 252 41 Z" fill="#191c2b" fill-opacity="0.501961" />
<path d="M 237 44 L 245 44 L 244 39 Z" fill="#1e2133" fill-opacity="0.501961" />
<path d="M 253 43 L 266 46 L 249 50 Z" fill="#151724" fill-opacity="0.501961" />
<path d="M 243 51 L 245 47 L 239 49 Z" fill="#191c2b" fill-opacity="0.501961" />
<path d="M 241 38 L 237 31 L 248 38 Z" fill="#1d2031" fill-opacity="0.501961" />
<path d="M 242 46 L 243 45 L 245 46 Z" fill="#141723" fill-opacity="0.501961" />
<path d="M 239 39 L 228 45 L 236 34 Z" fill="#292c44" fill-opacity="0.501961" />
<path d="M 231 28 L 245 29 L 241 26 Z" fill="#2f344f" fill-opacity="0.501961" />
<path d="M 216 25 L 214 31 L 231 28 Z" fill="#353b59" fill-opacity="0.501961" />
<path d="M 237 32 L 223 32 L 225 37 Z" fill="#1a1d2c" fill-opacity="0.501961" />
<path d="M 228 38 L 209 31 L 188 35 Z" fill="#212437" fill-opacity="0.501961" />
</g>
</svg>
