<svg version="1.1" width="737" height="608" xmlns="http://www.w3.org/2000/svg">
<rect x="0" y="0" width="737" height="608" fill="#12141f" />
<g transform="scale(2.87891, 2.88152)">
<path d="M 271 18 L -1 75 L 2 -16 Z" fill="#464c75" fill-opacity="0.501961" />
<path d="M 254 226 L 260 41 L -16 193 Z" fill="#000000" fill-opacity="0.501961" />
<path d="M 6 226 L 225 57 L -16 107 Z" fill="#030305" fill-opacity="0.501961" />
<path d="M -13 110 L -6 55 L 117 50 Z" fill="#141621" fill-opacity="0.501961" />
<path d="M 271 47 L 33 55 L 105 -16 Z" fill="#383d5e" fill-opacity="0.501961" />
<path d="M 155 88 L 38 73 L -8 111 Z" fill="#10111a" fill-opacity="0.501961" />
<path d="M 128 93 L 114 196 L -1 107 Z" fill="#0b0c12" fill-opacity="0.501961" />
<path d="M -13 67 L 109 42 L 119 103 Z" fill="#171927" fill-opacity="0.501961" />
<path d="M 16 112 L 33 77 L 87 83 Z" fill="#0c0d14" fill-opacity="0.501961" />
<path d="M 46 57 L -3 44 L -3 98 Z" fill="#1c1e2f" fill-opacity="0.501961" />
<path d="M -9 104 L 24 61 L 42 66 Z" fill="#161825" fill-opacity="0.501961" />
<path d="M 2 90 L 24 70 L -3 57 Z" fill="#1a1c2b" fill-opacity="0.501961" />
<path d="M 66 37 L 56 96 L 130 124 Z" fill="#11131d" fill-opacity="0.501961" />
<path d="M -2 103 L 32 72 L 56 76 Z" fill="#12131e" fill-opacity="0.501961" />
<path d="M 28 82 L 30 69 L 4 97 Z" fill="#141622" fill-opacity="0.501961" />
<path d="M -15 96 L 30 62 L -3 74 Z" fill="#1a1c2b" fill-opacity="0.501961" />
<path d="M 26 75 L 6 95 L 12 82 Z" fill="#161824" fill-opacity="0.501961" />
<path d="M 0 63 L 12 74 L 15 58 Z" fill="#1c1e2e" fill-opacity="0.501961" />
<path d="M 6 33 L -13 50 L 54 35 Z" fill="#3c4164" fill-opacity="0.501961" />
<path d="M 2 -16 L -3 16 L 79 2 Z" fill="#000000" fill-opacity="0.501961" />
<path d="M 67 15 L 89 -16 L -16 15 Z" fill="#161825" fill-opacity="0.501961" />
<path d="M -9 -16 L 14 7 L 78 0 Z" fill="#07070c" fill-opacity="0.501961" />
<path d="M 6 -16 L 58 -12 L 61 14 Z" fill="#0d0e16" fill-opacity="0.501961" />
<path d="M -4 26 L 39 15 L 62 27 Z" fill="#3a4062" fill-opacity="0.501961" />
<path d="M 45 6 L 102 38 L -8 12 Z" fill="#272b42" fill-opacity="0.501961" />
<path d="M 168 17 L 76 29 L 90 -16 Z" fill="#464d74" fill-opacity="0.501961" />
<path d="M 123 32 L 37 65 L 54 21 Z" fill="#292e46" fill-opacity="0.501961" />
<path d="M 192 55 L 193 3 L 86 62 Z" fill="#25293e" fill-opacity="0.501961" />
<path d="M 199 39 L 115 38 L 152 51 Z" fill="#393e5f" fill-opacity="0.501961" />
<path d="M 173 53 L 136 45 L 98 58 Z" fill="#1f2235" fill-opacity="0.501961" />
<path d="M 116 73 L 239 119 L 219 44 Z" fill="#0d0e15" fill-opacity="0.501961" />
<path d="M 177 226 L 199 65 L 112 116 Z" fill="#040405" fill-opacity="0.501961" />
<path d="M 266 103 L -10 211 L 271 210 Z" fill="#030304" fill-opacity="0.501961" />
<path d="M 241 102 L 270 4 L 185 113 Z" fill="#141621" fill-opacity="0.501961" />
<path d="M 214 119 L 271 134 L 248 78 Z" fill="#060609" fill-opacity="0.501961" />
<path d="M 245 60 L 231 89 L 167 98 Z" fill="#020304" fill-opacity="0.501961" />
<path d="M 210 -16 L 226 68 L 269 0 Z" fill="#3b4063" fill-opacity="0.501961" />
<path d="M 211 60 L 254 20 L 270 67 Z" fill="#191b2a" fill-opacity="0.501961" />
<path d="M 241 51 L 219 55 L 235 60 Z" fill="#303551" fill-opacity="0.501961" />
<path d="M 224 49 L 259 23 L 251 57 Z" fill="#191c2b" fill-opacity="0.501961" />
<path d="M 244 60 L 252 50 L 251 56 Z" fill="#23273b" fill-opacity="0.501961" />
<path d="M 246 72 L 242 53 L 227 82 Z" fill="#030406" fill-opacity="0.501961" />
<path d="M 241 72 L 259 61 L 251 72 Z" fill="#020304" fill-opacity="0.501961" />
<path d="M 263 75 L 242 75 L 256 71 Z" fill="#181a28" fill-opacity="0.501961" />
<path d="M 236 80 L 246 73 L 238 85 Z" fill="#161926" fill-opacity="0.501961" />
<path d="M 236 65 L 212 55 L 211 62 Z" fill="#090a10" fill-opacity="0.501961" />
<path d="M 205 105 L 194 100 L 201 94 Z" fill="#333856" fill-opacity="0.501961" />
<path d="M 232 74 L 212 68 L 214 75 Z" fill="#050508" fill-opacity="0.501961" />
<path d="M 216 93 L 200 58 L 130 102 Z" fill="#09090e" fill-opacity="0.501961" />
<path d="M 213 83 L 129 72 L 219 55 Z" fill="#0b0c12" fill-opacity="0.501961" />
<path d="M 218 89 L 212 112 L 233 88 Z" fill="#191b2a" fill-opacity="0.501961" />
<path d="M 234 80 L 225 94 L 224 85 Z" fill="#020204" fill-opacity="0.501961" />
<path d="M 238 79 L 234 90 L 229 90 Z" fill="#131521" fill-opacity="0.501961" />
<path d="M 252 91 L 249 80 L 230 88 Z" fill="#0a0c12" fill-opacity="0.501961" />
<path d="M 250 84 L 236 84 L 248 103 Z" fill="#080a0f" fill-opacity="0.501961" />
<path d="M 227 67 L 220 61 L 221 69 Z" fill="#25293f" fill-opacity="0.501961" />
<path d="M 229 68 L 242 75 L 243 54 Z" fill="#07080c" fill-opacity="0.501961" />
<path d="M 248 60 L 208 99 L 192 86 Z" fill="#06060a" fill-opacity="0.501961" />
<path d="M 180 76 L 223 88 L 236 74 Z" fill="#090a0f" fill-opacity="0.501961" />
<path d="M 229 67 L 240 64 L 252 71 Z" fill="#090a0f" fill-opacity="0.501961" />
<path d="M 242 74 L 252 69 L 237 71 Z" fill="#050609" fill-opacity="0.501961" />
<path d="M 234 80 L 226 73 L 242 72 Z" fill="#05060a" fill-opacity="0.501961" />
<path d="M 234 71 L 239 75 L 243 64 Z" fill="#050609" fill-opacity="0.501961" />
<path d="M 243 69 L 246 62 L 254 61 Z" fill="#1e2032" fill-opacity="0.501961" />
<path d="M 230 67 L 236 69 L 226 62 Z" fill="#07080c" fill-opacity="0.501961" />
<path d="M 238 76 L 243 68 L 233 76 Z" fill="#07080d" fill-opacity="0.501961" />
<path d="M 228 70 L 225 94 L 233 76 Z" fill="#050609" fill-opacity="0.501961" />
<path d="M 240 71 L 229 77 L 235 77 Z" fill="#08080d" fill-opacity="0.501961" />
<path d="M 235 74 L 223 70 L 237 70 Z" fill="#050609" fill-opacity="0.501961" />
<path d="M 268 104 L 259 114 L 220 99 Z" fill="#07080b" fill-opacity="0.501961" />
<path d="M 257 86 L 241 106 L 233 91 Z" fill="#080a0e" fill-opacity="0.501961" />
<path d="M 256 115 L 208 125 L 265 81 Z" fill="#07080b" fill-opacity="0.501961" />
<path d="M 229 109 L 269 99 L 246 90 Z" fill="#08090e" fill-opacity="0.501961" />
<path d="M 262 104 L 237 115 L 255 115 Z" fill="#07070c" fill-opacity="0.501961" />
<path d="M 245 100 L 252 75 L 217 113 Z" fill="#0a0b11" fill-opacity="0.501961" />
<path d="M 225 100 L 266 107 L 255 114 Z" fill="#07070b" fill-opacity="0.501961" />
<path d="M 230 111 L 263 87 L 264 68 Z" fill="#08090d" fill-opacity="0.501961" />
<path d="M 237 106 L 247 103 L 248 107 Z" fill="#07090d" fill-opacity="0.501961" />
<path d="M 238 113 L 223 115 L 234 110 Z" fill="#07060a" fill-opacity="0.501961" />
<path d="M 208 106 L 224 106 L 217 94 Z" fill="#191c2b" fill-opacity="0.501961" />
<path d="M 196 93 L 207 101 L 197 106 Z" fill="#24283e" fill-opacity="0.501961" />
<path d="M 209 105 L 194 99 L 200 112 Z" fill="#141723" fill-opacity="0.501961" />
<path d="M 210 110 L 221 110 L 224 104 Z" fill="#11121c" fill-opacity="0.501961" />
<path d="M 209 102 L 197 98 L 198 94 Z" fill="#2e324d" fill-opacity="0.501961" />
<path d="M 194 96 L 196 113 L 159 127 Z" fill="#040408" fill-opacity="0.501961" />
<path d="M 174 83 L 225 58 L 173 65 Z" fill="#0c0d14" fill-opacity="0.501961" />
<path d="M 215 93 L 184 94 L 197 80 Z" fill="#06070b" fill-opacity="0.501961" />
<path d="M 166 79 L 196 94 L 215 79 Z" fill="#08090e" fill-opacity="0.501961" />
<path d="M 187 35 L 247 21 L 271 38 Z" fill="#1f2235" fill-opacity="0.501961" />
<path d="M 173 38 L 190 46 L 212 37 Z" fill="#353a59" fill-opacity="0.501961" />
<path d="M 197 32 L 271 5 L 206 9 Z" fill="#454b73" fill-opacity="0.501961" />
<path d="M 210 56 L 231 31 L 220 32 Z" fill="#1b1e2f" fill-opacity="0.501961" />
<path d="M 224 33 L 143 29 L 212 14 Z" fill="#363c5b" fill-opacity="0.501961" />
<path d="M 222 46 L 221 31 L 191 31 Z" fill="#23273c" fill-opacity="0.501961" />
<path d="M 239 46 L 203 57 L 165 47 Z" fill="#191c2b" fill-opacity="0.501961" />
<path d="M 219 51 L 221 60 L 191 50 Z" fill="#161826" fill-opacity="0.501961" />
<path d="M 220 40 L 205 36 L 182 47 Z" fill="#2d314c" fill-opacity="0.501961" />
<path d="M 208 55 L 231 64 L 184 64 Z" fill="#0d0e16" fill-opacity="0.501961" />
<path d="M 212 52 L 209 58 L 220 55 Z" fill="#10121c" fill-opacity="0.501961" />
<path d="M 219 58 L 223 52 L 230 55 Z" fill="#353a58" fill-opacity="0.501961" />
<path d="M 221 58 L 224 59 L 221 61 Z" fill="#040508" fill-opacity="0.501961" />
<path d="M 239 37 L 242 54 L 229 63 Z" fill="#212437" fill-opacity="0.501961" />
<path d="M 220 69 L 224 67 L 224 69 Z" fill="#313652" fill-opacity="0.501961" />
<path d="M 231 63 L 240 60 L 244 52 Z" fill="#11131e" fill-opacity="0.501961" />
<path d="M 247 60 L 238 66 L 234 63 Z" fill="#08090e" fill-opacity="0.501961" />
<path d="M 226 88 L 195 64 L 228 76 Z" fill="#090a0f" fill-opacity="0.501961" />
<path d="M 237 81 L 234 85 L 242 79 Z" fill="#181a28" fill-opacity="0.501961" />
<path d="M 228 96 L 232 88 L 221 97 Z" fill="#181b29" fill-opacity="0.501961" />
<path d="M 231 100 L 240 88 L 230 92 Z" fill="#0d0e17" fill-opacity="0.501961" />
<path d="M 193 128 L 218 125 L 212 112 Z" fill="#050507" fill-opacity="0.501961" />
<path d="M 231 140 L 206 139 L 227 128 Z" fill="#050407" fill-opacity="0.501961" />
<path d="M 223 42 L 235 47 L 232 35 Z" fill="#323654" fill-opacity="0.501961" />
<path d="M 234 49 L 225 46 L 226 52 Z" fill="#08080d" fill-opacity="0.501961" />
<path d="M 226 47 L 234 50 L 223 51 Z" fill="#0c0e15" fill-opacity="0.501961" />
<path d="M 239 48 L 242 35 L 228 48 Z" fill="#222538" fill-opacity="0.501961" />
<path d="M 230 46 L 227 50 L 234 49 Z" fill="#181a28" fill-opacity="0.501961" />
<path d="M 228 51 L 237 51 L 236 55 Z" fill="#262a41" fill-opacity="0.501961" />
<path d="M 238 22 L 250 26 L 225 25 Z" fill="#1e2032" fill-opacity="0.501961" />
<path d="M 221 22 L 240 22 L 238 41 Z" fill="#282b43" fill-opacity="0.501961" />
<path d="M 237 30 L 252 35 L 222 35 Z" fill="#171927" fill-opacity="0.501961" />
<path d="M 229 43 L 239 22 L 237 40 Z" fill="#292d45" fill-opacity="0.501961" />
<path d="M 232 25 L 261 26 L 247 31 Z" fill="#292d45" fill-opacity="0.501961" />
<path d="M 149 -16 L 219 2 L 181 21 Z" fill="#040507" fill-opacity="0.501961" />
<path d="M 241 31 L 260 39 L 257 51 Z" fill="#12141f" fill-opacity="0.501961" />
<path d="M 225 38 L 229 32 L 207 33 Z" fill="#1e2132" fill-opacity="0.501961" />
<path d="M 235 35 L 226 37 L 222 48 Z" fill="#333856" fill-opacity="0.501961" />
<path d="M 226 36 L 222 37 L 221 31 Z" fill="#1e2133" fill-opacity="0.501961" />
<path d="M 222 42 L 219 48 L 199 47 Z" fill="#1d2031" fill-opacity="0.501961" />
<path d="M 239 33 L 229 34 L 233 32 Z" fill="#1a1d2c" fill-opacity="0.501961" />
<path d="M 225 36 L 214 46 L 217 36 Z" fill="#24273d" fill-opacity="0.501961" />
<path d="M 223 42 L 226 38 L 231 36 Z" fill="#363b5b" fill-opacity="0.501961" />
<path d="M 224 53 L 220 57 L 223 47 Z" fill="#2c304b" fill-opacity="0.501961" />
<path d="M 224 64 L 224 69 L 230 64 Z" fill="#202336" fill-opacity="0.501961" />
<path d="M 223 81 L 227 80 L 227 82 Z" fill="#0e0f18" fill-opacity="0.501961" />
<path d="M 239 86 L 232 88 L 235 86 Z" fill="#12141f" fill-opacity="0.501961" />
</g>
</svg>
